mtllib material.mtl
o Default
v 3.25 -1.3125 0
v 0 -0.00002574920654296875 0.00005000249802833423
v 3.25 -0.00002574920654296875 0.00005000249802833423
v 0 -1.3125 0
v 0 1.9628743075372768e-13 0.1249999925494194
v 3.25 1.9628743075372768e-13 0.1249999925494194
v 0 -1.375 0.125
v 3.25 -1.375 0.125
vt 0.4375 0.88671875
vt 0.640625 0.96875
vt 0.4375 0.96875
vt 0.4375 0.88671875
vt 0.640625 0.88671875
vt 0.640625 0.96875
vt 0.4375 0.87890625
vt 0.640625 0.88671875
vt 0.4375 0.88671875
vt 0.4375 0.87890625
vt 0.640625 0.87890625
vt 0.640625 0.88671875
vt 0.4375 0.79296875
vt 0.640625 0.87890625
vt 0.4375 0.87890625
vt 0.4375 0.79296875
vt 0.640625 0.79296875
vt 0.640625 0.87890625
vn 0 0.00003809788874853518 -0.9999999992742754
vn 0 0.00003809788874853518 -0.9999999992742754
vn 0 0.00003809788874853518 -0.9999999992742754
vn 0 0.00003809788874853518 -0.9999999992742754
vn 0 0.00003809788874853518 -0.9999999992742754
vn 0 0.00003809788874853518 -0.9999999992742754
vn 0 0.9999999787663212 -0.00020607609637996228
vn 0 0.9999999787663212 -0.00020607609637996228
vn 0 0.9999999787663212 -0.00020607609637996228
vn 0 0.9999999787663212 -0.00020607609637996228
vn 0 0.9999999787663212 -0.00020607609637996228
vn 0 0.9999999787663212 -0.00020607609637996228
vn 0 5.4186040704892836e-9 0.9999999999999999
vn 0 5.4186040704892836e-9 0.9999999999999999
vn 0 5.4186040704892836e-9 0.9999999999999999
vn 0 5.4186040704892836e-9 0.9999999999999999
vn 0 5.4186040704892836e-9 0.9999999999999999
vn 0 5.4186040704892836e-9 0.9999999999999999
g OvenDoor
usemtl 1
f 1/1/1 2/2/2 3/3/3
f 1/4/4 4/5/5 2/6/6
f 5/7/7 3/8/8 2/9/9
f 5/10/10 6/11/11 3/12/12
f 7/13/13 6/14/14 5/15/15
f 7/16/16 8/17/17 6/18/18
