mtllib material.mtl
o Default
v -5.6875 -2.5625 0
v -5.6875 1.8125 -2
v -5.6875 1.8125 0
v -5.6875 -2.5625 -2
v -1.9375 -2.5625 -2
v -1.9375 1.8125 0
v -1.9375 1.8125 -2
v -1.9375 -2.5625 0
v -3.8125 -2.5625 -1.75
v -1.8125 1.8125 -1.75
v -3.8125 1.8125 -1.75
v -1.8125 -2.5625 -1.75
v -5.8125 -2.5625 -1.75
v -5.8125 1.8125 -1.75
v -1.8125 1.8125 0
v -5.8125 1.8125 0
v -5.8125 -2.5625 0
v -1.8125 -2.5625 0
v -1.8125 -3.25 0.125
v -1.8125 2.75 -1.9375
v -1.8125 2.75 0.125
v -1.8125 -3.25 -1.9375
v -5.8125 -2.5625 0.125
v -1.8125 -2.5625 0.125
v -1.8125 1.8125 0.125
v -5.8125 1.8125 0.125
v -5.8125 -3.25 0.125
v -5.8125 -3.25 -1.875
v -5.8125 2.75 0.125
v -5.8125 2.75 -1.875
v -1.8125 2.75 -1.875
vt 0.875 0.4453125
vt 1 0.71875
vt 0.875 0.71875
vt 0.875 0.4453125
vt 1 0.4453125
vt 1 0.71875
vt 0.875 0.4453125
vt 1 0.71875
vt 0.875 0.71875
vt 0.875 0.4453125
vt 1 0.4453125
vt 1 0.71875
vt 0.875 0.7265625
vt 1 1
vt 0.875 1
vt 0.875 0.7265625
vt 1 0.7265625
vt 1 1
vt 0.875 0.7265625
vt 1 1
vt 0.875 1
vt 0.875 0.7265625
vt 1 0.7265625
vt 1 1
vt 0.375 0.69921875
vt 0.625 0.80859375
vt 0.375 0.80859375
vt 0.375 0.69921875
vt 0.625 0.69921875
vt 0.625 0.80859375
vt 0.375 0.55078125
vt 0.625 0.66015625
vt 0.375 0.66015625
vt 0.375 0.55078125
vt 0.625 0.55078125
vt 0.625 0.66015625
vt 0.625 0.5
vt 0.75390625 0.875
vt 0.625 0.875
vt 0.625 0.5
vt 0.75390625 0.5
vt 0.75390625 0.875
vt 0.63671875 0.1171875
vt 0.64453125 0.390625
vt 0.63671875 0.390625
vt 0.63671875 0.1171875
vt 0.64453125 0.1171875
vt 0.64453125 0.390625
vt 0.63671875 0.1171875
vt 0.64453125 0.390625
vt 0.63671875 0.390625
vt 0.63671875 0.1171875
vt 0.64453125 0.1171875
vt 0.64453125 0.390625
vt 0.375 0.54296875
vt 0.625 0.55078125
vt 0.375 0.55078125
vt 0.375 0.54296875
vt 0.625 0.54296875
vt 0.625 0.55078125
vt 0.375 0.80859375
vt 0.625 0.81640625
vt 0.375 0.81640625
vt 0.375 0.80859375
vt 0.625 0.80859375
vt 0.625 0.81640625
vt 0.375 0.5
vt 0.625 0.54296875
vt 0.375 0.54296875
vt 0.375 0.5
vt 0.625 0.5
vt 0.625 0.54296875
vt 0.25 0.5
vt 0.375 0.875
vt 0.25 0.875
vt 0.25 0.5
vt 0.375 0.5
vt 0.375 0.875
vt 0.375 0.875
vt 0.625 1
vt 0.375 1
vt 0.375 0.875
vt 0.625 0.875
vt 0.625 1
vt 0.375 0.81640625
vt 0.625 0.875
vt 0.375 0.875
vt 0.375 0.81640625
vt 0.625 0.81640625
vt 0.625 0.875
vn 1 0 0
vn 1 0 0
vn 1 0 0
vn 1 0 0
vn 1 0 0
vn 1 0 0
vn -1 0 0
vn -1 0 0
vn -1 0 0
vn -1 0 0
vn -1 0 0
vn -1 0 0
vn 0 0 1
vn 0 0 1
vn 0 0 1
vn 0 0 1
vn 0 0 1
vn 0 0 1
vn 0 0 1
vn 0 0 1
vn 0 0 1
vn 0 0 1
vn 0 0 1
vn 0 0 1
vn 0 -1 0
vn 0 -1 0
vn 0 -1 0
vn 0 -1 0
vn 0 -1 0
vn 0 -1 0
vn 0 1 0
vn 0 1 0
vn 0 1 0
vn 0 1 0
vn 0 1 0
vn 0 1 0
vn 1 0 0
vn 1 0 0
vn 1 0 0
vn 1 0 0
vn 1 0 0
vn 1 0 0
vn 0 0 1
vn 0 0 1
vn 0 0 1
vn 0 0 1
vn 0 0 1
vn 0 0 1
vn 0 0 1
vn 0 0 1
vn 0 0 1
vn 0 0 1
vn 0 0 1
vn 0 0 1
vn 0 1 0
vn 0 1 0
vn 0 1 0
vn 0 1 0
vn 0 1 0
vn 0 1 0
vn 0 -1 0
vn 0 -1 0
vn 0 -1 0
vn 0 -1 0
vn 0 -1 0
vn 0 -1 0
vn 0 0 1
vn 0 0 1
vn 0 0 1
vn 0 0 1
vn 0 0 1
vn 0 0 1
vn -1 0 0
vn -1 0 0
vn -1 0 0
vn -1 0 0
vn -1 0 0
vn -1 0 0
vn 0 1 0
vn 0 1 0
vn 0 1 0
vn 0 1 0
vn 0 1 0
vn 0 1 0
vn 0 0 1
vn 0 0 1
vn 0 0 1
vn 0 0 1
vn 0 0 1
vn 0 0 1
g Fridge
usemtl 1
f 1/1/1 2/2/2 3/3/3
f 1/4/4 4/5/5 2/6/6
f 5/7/7 6/8/8 7/9/9
f 5/10/10 8/11/11 6/12/12
f 9/13/13 10/14/14 11/15/15
f 9/16/16 12/17/17 10/18/18
f 13/19/19 11/20/20 14/21/21
f 13/22/22 9/23/23 11/24/24
f 14/25/25 15/26/26 16/27/27
f 14/28/28 10/29/29 15/30/30
f 17/31/31 12/32/32 13/33/33
f 17/34/34 18/35/35 12/36/36
f 19/37/37 20/38/38 21/39/39
f 19/40/40 22/41/41 20/42/42
f 8/43/43 15/44/44 6/45/45
f 8/46/46 18/47/47 15/48/48
f 17/49/49 3/50/50 16/51/51
f 17/52/52 1/53/53 3/54/54
f 23/55/55 18/56/56 17/57/57
f 23/58/58 24/59/59 18/60/60
f 16/61/61 25/62/62 26/63/63
f 16/64/64 15/65/65 25/66/66
f 27/67/67 24/68/68 23/69/69
f 27/70/70 19/71/71 24/72/72
f 28/73/73 29/74/74 30/75/75
f 28/76/76 27/77/77 29/78/78
f 29/79/79 31/80/80 30/81/81
f 29/82/82 21/83/83 31/84/84
f 26/85/85 21/86/86 29/87/87
f 26/88/88 25/89/89 21/90/90
