mtllib material.mtl
o Default
v 0 -0.125 0
v 3.75 0 0
v 0 0 0
v 3.75 -0.125 0
v 0 -0.125 -0.4375
v 3.75 0 -0.4375
v 0 0 -0.4375
v 3.75 -0.125 -0.4375
v 0 -0.125 -0.75
v 3.75 0 -0.75
v 0 0 -0.75
v 3.75 -0.125 -0.75
v 0 -0.125 -1.125
v 3.75 0 -1.125
v 0 0 -1.125
v 3.75 -0.125 -1.125
v 0 -0.125 -1.5
v 3.75 0 -1.5
v 0 0 -1.5
v 3.75 -0.125 -1.5
v 0 -0.125 -1.8125
v 3.75 0 -1.8125
v 0 0 -1.8125
v 3.75 -0.125 -1.8125
v 3.75 3.3306690738754696e-16 -2
v 0 3.3306690738754696e-16 -2
vt 0.3828125 0.2421875
vt 0.6171875 0.25
vt 0.3828125 0.25
vt 0.3828125 0.2421875
vt 0.6171875 0.2421875
vt 0.6171875 0.25
vt 0.3828125 0.2421875
vt 0.6171875 0.25
vt 0.3828125 0.25
vt 0.3828125 0.2421875
vt 0.6171875 0.2421875
vt 0.6171875 0.25
vt 0.3828125 0.2421875
vt 0.6171875 0.25
vt 0.3828125 0.25
vt 0.3828125 0.2421875
vt 0.6171875 0.2421875
vt 0.6171875 0.25
vt 0.3828125 0.2421875
vt 0.6171875 0.25
vt 0.3828125 0.25
vt 0.3828125 0.2421875
vt 0.6171875 0.2421875
vt 0.6171875 0.25
vt 0.3828125 0.2421875
vt 0.6171875 0.25
vt 0.3828125 0.25
vt 0.3828125 0.2421875
vt 0.6171875 0.2421875
vt 0.6171875 0.25
vt 0.3828125 0.2421875
vt 0.6171875 0.25
vt 0.3828125 0.25
vt 0.3828125 0.2421875
vt 0.6171875 0.2421875
vt 0.6171875 0.25
vt 0.3828125 0.25
vt 0.6171875 0.375
vt 0.3828125 0.375
vt 0.3828125 0.25
vt 0.6171875 0.25
vt 0.6171875 0.375
vn 0 0 1
vn 0 0 1
vn 0 0 1
vn 0 0 1
vn 0 0 1
vn 0 0 1
vn 0 0 1
vn 0 0 1
vn 0 0 1
vn 0 0 1
vn 0 0 1
vn 0 0 1
vn 0 0 1
vn 0 0 1
vn 0 0 1
vn 0 0 1
vn 0 0 1
vn 0 0 1
vn 0 0 1
vn 0 0 1
vn 0 0 1
vn 0 0 1
vn 0 0 1
vn 0 0 1
vn 0 0 1
vn 0 0 1
vn 0 0 1
vn 0 0 1
vn 0 0 1
vn 0 0 1
vn 0 0 1
vn 0 0 1
vn 0 0 1
vn 0 0 1
vn 0 0 1
vn 0 0 1
vn 0 1 1.6653345369377348e-16
vn 0 1 1.6653345369377348e-16
vn 0 1 1.6653345369377348e-16
vn 2.960594732333751e-17 1 2.220446049250313e-16
vn 2.960594732333751e-17 1 2.220446049250313e-16
vn 2.960594732333751e-17 1 2.220446049250313e-16
g FridgeShelf
usemtl 1
f 1/1/1 2/2/2 3/3/3
f 1/4/4 4/5/5 2/6/6
f 5/7/7 6/8/8 7/9/9
f 5/10/10 8/11/11 6/12/12
f 9/13/13 10/14/14 11/15/15
f 9/16/16 12/17/17 10/18/18
f 13/19/19 14/20/20 15/21/21
f 13/22/22 16/23/23 14/24/24
f 17/25/25 18/26/26 19/27/27
f 17/28/28 20/29/29 18/30/30
f 21/31/31 22/32/32 23/33/33
f 21/34/34 24/35/35 22/36/36
f 3/37/37 25/38/38 26/39/39
f 3/40/40 2/41/41 25/42/42
