mtllib material.mtl
o Default
v 0 0 0
v 0 0.25 -1.0625
v 0 0.25 0
v 0 0 -1.0625
v -0.6875 0 -1.0625
v -0.6875 0.25 0
v -0.6875 0.25 -1.0625
v -0.6875 0 0
v -0.75 0.25 0.75
v 0.0625 0.25 -1.0625
v -0.75 0.25 -1.0625
v 0.0625 0.25 0.75
vt 0.5199999809265137 0.43410852551460266
vt 0.5377777814865112 0.565891444683075
vt 0.5377777814865112 0.43410852551460266
vt 0.5199999809265137 0.43410852551460266
vt 0.5199999809265137 0.565891444683075
vt 0.5377777814865112 0.565891444683075
vt 0.5199999809265137 0.43410852551460266
vt 0.5377777814865112 0.565891444683075
vt 0.5377777814865112 0.43410852551460266
vt 0.5199999809265137 0.43410852551460266
vt 0.5199999809265137 0.565891444683075
vt 0.5377777814865112 0.565891444683075
vt 0.46222221851348877 0.43410852551460266
vt 0.41333332657814026 0.565891444683075
vt 0.46222221851348877 0.565891444683075
vt 0.46222221851348877 0.43410852551460266
vt 0.41333332657814026 0.43410852551460266
vt 0.41333332657814026 0.565891444683075
vt 0.5155555605888367 0.5348837375640869
vt 0.46666666865348816 0.565891444683075
vt 0.5155555605888367 0.565891444683075
vt 0.5155555605888367 0.5348837375640869
vt 0.46666666865348816 0.5348837375640869
vt 0.46666666865348816 0.565891444683075
vt 0.5155555605888367 0.5348837375640869
vt 0.46666666865348816 0.565891444683075
vt 0.5155555605888367 0.565891444683075
vt 0.5155555605888367 0.5348837375640869
vt 0.46666666865348816 0.5348837375640869
vt 0.46666666865348816 0.565891444683075
vt 0.40444445610046387 0.341085284948349
vt 0.3466666638851166 0.565891444683075
vt 0.40444445610046387 0.565891444683075
vt 0.40444445610046387 0.341085284948349
vt 0.3466666638851166 0.341085284948349
vt 0.3466666638851166 0.565891444683075
vn 1 0 0
vn 1 0 0
vn 1 0 0
vn 1 0 0
vn 1 0 0
vn 1 0 0
vn -1 0 0
vn -1 0 0
vn -1 0 0
vn -1 0 0
vn -1 0 0
vn -1 0 0
vn 0 0.9999999999999999 0
vn 0 0.9999999999999999 0
vn 0 0.9999999999999999 0
vn 0 0.9999999999999999 0
vn 0 0.9999999999999999 0
vn 0 0.9999999999999999 0
vn 0 0 1
vn 0 0 1
vn 0 0 1
vn 0 0 1
vn 0 0 1
vn 0 0 1
vn 0 0 1
vn 0 0 1
vn 0 0 1
vn 0 0 1
vn 0 0 1
vn 0 0 1
vn 0 1 0
vn 0 1 0
vn 0 1 0
vn 0 1 0
vn 0 1 0
vn 0 1 0
g FryBasket
usemtl 1
f 1/1/1 2/2/2 3/3/3
f 1/4/4 4/5/5 2/6/6
f 5/7/7 6/8/8 7/9/9
f 5/10/10 8/11/11 6/12/12
f 8/13/13 4/14/14 5/15/15
f 8/16/16 1/17/17 4/18/18
f 8/19/19 3/20/20 6/21/21
f 8/22/22 1/23/23 3/24/24
f 5/25/25 2/26/26 7/27/27
f 5/28/28 4/29/29 2/30/30
f 9/31/31 10/32/32 11/33/33
f 9/34/34 12/35/35 10/36/36
