mtllib material.mtl
o Default
v -0.1875 0 -0.1875
v -0.1875 0.0625 -0.125
v -0.1875 0.0625 -0.1875
v -0.1875 0 -0.125
v -0.1875 0 -0.25
v -0.1875 0.0625 -0.25
v -0.1875 0 -0.3125
v -0.1875 0.0625 -0.3125
v 0 -4.163336342344337e-17 0
v -0.1875 -4.163336342344337e-17 0
v 0 4.163336342344337e-17 -0.3125
v -0.1875 0.0625 0
v 0 0.06239882484078407 -0.31251874566078186
v 0 0.0625 0
v -0.25 0 -0.375
v -0.1875 0 -0.375
v -0.1875 0.015625 -0.375
v -0.1875 0.015625 -0.3125
v 0 0.06246757507324219 -1.0000187158584595
v 0 0 -1
v -0.25 -0.0000324249267578125 -1.000018835067749
v -0.25 -0.00010117275087395683 -0.31251874566078186
v 0 0 -0.25
v 0 0.0625 -0.25
v 0 0 -0.1875
v 0 0.0625 -0.1875
v 0 0 -0.125
v 0 0.0625 -0.125
v 0 0 -0.0625
v 0 0.0625 -0.0625
v -0.0625 0 0
v -0.0625 0.0625 0
v -0.125 0 0
v -0.125 0.0625 0
v -0.125 0 -0.0625
v -0.125 0.0625 -0.0625
v -0.1875 0 -0.0625
v -0.1875 0.0625 -0.0625
v -0.0625 0.0625 -0.3125
v -0.0625 0 -0.3125
v -0.125 0.0625 -0.3125
v -0.125 0 -0.3125
vt 0.5 0.1875
vt 0.4375 0.125
vt 0.5 0.125
vt 0.5 0.1875
vt 0.4375 0.1875
vt 0.4375 0.125
vt 0.5 0.25
vt 0.4375 0.1875
vt 0.5 0.1875
vt 0.5 0.25
vt 0.4375 0.25
vt 0.4375 0.1875
vt 0.5 0.3125
vt 0.4375 0.25
vt 0.5 0.25
vt 0.5 0.3125
vt 0.4375 0.3125
vt 0.4375 0.25
vt 0.625 0.3125
vt 0.4375 0
vt 0.625 0
vt 0.625 0.3125
vt 0.4375 0.3125
vt 0.4375 0
vt 0.625 0
vt 0.4375 0.3125
vt 0.625 0.3125
vt 0.625 0
vt 0.4375 0
vt 0.4375 0.3125
vt 0.4375 0.375
vt 0.5 0.375
vt 0.5 0.3125
vt 0.4375 0.375
vt 0.5 0.3125
vt 0.4375 0.3125
vt 0.4375 0.375
vt 0.5 0.375
vt 0.5 0.3125
vt 0.4375 0.375
vt 0.625 0.3125
vt 0.4375 0.3125
vt 0.4375 0.375
vt 0.625 0.375
vt 0.625 0.3125
vt 0.5625 0.3125
vt 0.625 1
vt 0.625 0.3125
vt 0.5625 0.3125
vt 0.5625 1
vt 0.625 1
vt 0.375 1
vt 0.625 0.3125
vt 0.375 0.3125
vt 0.375 1
vt 0.625 1
vt 0.625 0.3125
vt 0.375 0.3125
vt 0.625 1
vt 0.375 1
vt 0.375 0.3125
vt 0.625 0.3125
vt 0.625 1
vt 0.625 0.3125
vt 0.5625 0.25
vt 0.625 0.25
vt 0.625 0.3125
vt 0.5625 0.3125
vt 0.5625 0.25
vt 0.625 0.3125
vt 0.5625 0.25
vt 0.625 0.25
vt 0.625 0.3125
vt 0.5625 0.3125
vt 0.5625 0.25
vt 0.625 0.3125
vt 0.5625 0.25
vt 0.625 0.25
vt 0.625 0.3125
vt 0.5625 0.3125
vt 0.5625 0.25
vt 0.625 0.3125
vt 0.5625 0.25
vt 0.625 0.25
vt 0.625 0.3125
vt 0.5625 0.3125
vt 0.5625 0.25
vt 0.625 0.3125
vt 0.5625 0.25
vt 0.625 0.25
vt 0.625 0.3125
vt 0.5625 0.3125
vt 0.5625 0.25
vt 0.5 0.25
vt 0.4375 0.1875
vt 0.5 0.1875
vt 0.5 0.25
vt 0.4375 0.25
vt 0.4375 0.1875
vt 0.5 0.1875
vt 0.4375 0.125
vt 0.5 0.125
vt 0.5 0.1875
vt 0.4375 0.1875
vt 0.4375 0.125
vt 0.5 0.25
vt 0.4375 0.1875
vt 0.5 0.1875
vt 0.5 0.25
vt 0.4375 0.25
vt 0.4375 0.1875
vt 0.5 0.3125
vt 0.4375 0.25
vt 0.5 0.25
vt 0.5 0.3125
vt 0.4375 0.3125
vt 0.4375 0.25
vt 0.5 0.3125
vt 0.4375 0.25
vt 0.5 0.25
vt 0.5 0.3125
vt 0.4375 0.3125
vt 0.4375 0.25
vt 0.5 0.3125
vt 0.4375 0.25
vt 0.5 0.25
vt 0.5 0.3125
vt 0.4375 0.3125
vt 0.4375 0.25
vt 0.5 0.3125
vt 0.4375 0.25
vt 0.5 0.25
vt 0.5 0.3125
vt 0.4375 0.3125
vt 0.4375 0.25
vt 0.5 0.125
vt 0.4375 0.0625
vt 0.5 0.0625
vt 0.5 0.125
vt 0.4375 0.125
vt 0.4375 0.0625
vn -1 0 0
vn -1 0 0
vn -1 0 0
vn -1 0 0
vn -1 0 0
vn -1 0 0
vn -1 0 0
vn -1 0 0
vn -1 0 0
vn -1 0 0
vn -1 0 0
vn -1 0 0
vn -1 0 0
vn -1 0 0
vn -1 0 0
vn -1 0 0
vn -1 0 0
vn -1 0 0
vn 0 -1 -1.3322676295501878e-16
vn 0 -1 -1.3322676295501878e-16
vn 0 -1 -1.3322676295501878e-16
vn 2.220446049250313e-16 -1 -2.6645352591003756e-16
vn 2.220446049250313e-16 -1 -2.6645352591003756e-16
vn 2.220446049250313e-16 -1 -2.6645352591003756e-16
vn 0.0005396007705940881 0.9999998544154937 0
vn 0.0005396007705940881 0.9999998544154937 0
vn 0.0005396007705940881 0.9999998544154937 0
vn 0 0.9999999475958575 -0.0003237410725555276
vn 0 0.9999999475958575 -0.0003237410725555276
vn 0 0.9999999475958575 -0.0003237410725555276
vn 0 0 1
vn 0 0 1
vn 0 0 1
vn -1 0 0
vn -1 0 0
vn -1 0 0
vn -1 0 0
vn -1 0 0
vn -1 0 0
vn 0.00009997685700360227 0 0.999999995002314
vn 0.00009997685700360227 0 0.999999995002314
vn 0.00009997685700360227 0 0.999999995002314
vn -6.670594622831097e-20 0.00030041687457721763 0.9999999548748496
vn -6.670594622831097e-20 0.00030041687457721763 0.9999999548748496
vn -6.670594622831097e-20 0.00030041687457721763 0.9999999548748496
vn 0.9999999999999999 0 0
vn 0.9999999999999999 0 0
vn 0.9999999999999999 0 0
vn 0.9999999999999999 0 0
vn 0.9999999999999999 0 0
vn 0.9999999999999999 0 0
vn 0.0004046984663577201 -0.9999999131098904 -0.0000999968133850568
vn 0.0004046984663577201 -0.9999999131098904 -0.0000999968133850568
vn 0.0004046984663577201 -0.9999999131098904 -0.0000999968133850568
vn 0.00012969970594034488 -0.9999999915889931 6.055761901565798e-17
vn 0.00012969970594034488 -0.9999999915889931 6.055761901565798e-17
vn 0.00012969970594034488 -0.9999999915889931 6.055761901565798e-17
vn -0.24253562393859887 0.9701424955693613 0.0000970111665156736
vn -0.24253562393859887 0.9701424955693613 0.0000970111665156736
vn -0.24253562393859887 0.9701424955693613 0.0000970111665156736
vn -0.24253561509899083 0.9701424977789217 0.0000970145820088097
vn -0.24253561509899083 0.9701424977789217 0.0000970145820088097
vn -0.24253561509899083 0.9701424977789217 0.0000970145820088097
vn 1 0 0
vn 1 0 0
vn 1 0 0
vn 0.9999999999999999 0 0
vn 0.9999999999999999 0 0
vn 0.9999999999999999 0 0
vn 1 0 0
vn 1 0 0
vn 1 0 0
vn 1 0 0
vn 1 0 0
vn 1 0 0
vn 1 0 0
vn 1 0 0
vn 1 0 0
vn 1 0 0
vn 1 0 0
vn 1 0 0
vn 1 0 0
vn 1 0 0
vn 1 0 0
vn 1 0 0
vn 1 0 0
vn 1 0 0
vn 1 0 0
vn 1 0 0
vn 1 0 0
vn 1 0 0
vn 1 0 0
vn 1 0 0
vn 0 0 1
vn 0 0 1
vn 0 0 1
vn 0 0 1
vn 0 0 1
vn 0 0 1
vn 0 0 1
vn 0 0 1
vn 0 0 1
vn 0 0 1
vn 0 0 1
vn 0 0 1
vn -1 0 0
vn -1 0 0
vn -1 0 0
vn -1 0 0
vn -1 0 0
vn -1 0 0
vn 0 0 1
vn 0 0 1
vn 0 0 1
vn 0 0 1
vn 0 0 1
vn 0 0 1
vn -0.0003004168610208621 -0.0003004168610208623 -0.9999999097497057
vn -0.0003004168610208621 -0.0003004168610208623 -0.9999999097497057
vn -0.0003004168610208621 -0.0003004168610208623 -0.9999999097497057
vn 0 0 -1
vn 0 0 -1
vn 0 0 -1
vn 0 0 -1
vn 0 0 -1
vn 0 0 -1
vn 0 0 -1
vn 0 0 -1
vn 0 0 -1
vn 0 0 -1
vn 0 0 -1
vn 0 0 -1
vn 0 0 -1
vn 0 0 -1
vn 0 0 -1
vn -1 0 0
vn -1 0 0
vn -1 0 0
vn -1 0 0
vn -1 0 0
vn -1 0 0
g Knife
usemtl 2
f 1/1/1 2/2/2 3/3/3
f 1/4/4 4/5/5 2/6/6
f 5/7/7 3/8/8 6/9/9
f 5/10/10 1/11/11 3/12/12
f 7/13/13 6/14/14 8/15/15
f 7/16/16 5/17/17 6/18/18
f 7/19/19 9/20/20 10/21/21
f 7/22/22 11/23/23 9/24/24
f 12/25/25 13/26/26 8/27/27
f 12/28/28 14/29/29 13/30/30
f 15/31/31 16/32/32 17/33/33
f 16/34/34 18/35/35 17/36/36
f 16/37/37 7/38/38 18/39/39
f 7/40/40 13/41/41 18/42/42
f 7/43/43 11/44/44 13/45/45
f 11/46/46 19/47/47 13/48/48
f 11/49/49 20/50/50 19/51/51
f 21/52/52 11/53/53 22/54/54
f 21/55/55 20/56/56 11/57/57
f 22/58/58 19/59/59 21/60/60
f 22/61/61 13/62/62 19/63/63
f 23/64/64 13/65/65 24/66/66
f 23/67/67 11/68/68 13/69/69
f 25/70/70 24/71/71 26/72/72
f 25/73/73 23/74/74 24/75/75
f 27/76/76 26/77/77 28/78/78
f 27/79/79 25/80/80 26/81/81
f 29/82/82 28/83/83 30/84/84
f 29/85/85 27/86/86 28/87/87
f 9/88/88 30/89/89 14/90/90
f 9/91/91 29/92/92 30/93/93
f 31/94/94 14/95/95 32/96/96
f 31/97/97 9/98/98 14/99/99
f 33/100/100 32/101/101 34/102/102
f 33/103/103 31/104/104 32/105/105
f 35/106/106 34/107/107 36/108/108
f 35/109/109 33/110/110 34/111/111
f 37/112/112 36/113/113 38/114/114
f 37/115/115 35/116/116 36/117/117
f 11/118/118 39/119/119 13/120/120
f 11/121/121 40/122/122 39/123/123
f 40/124/124 41/125/125 39/126/126
f 40/127/127 42/128/128 41/129/129
f 42/130/130 8/131/131 41/132/132
f 42/133/133 7/134/134 8/135/135
f 4/136/136 38/137/137 2/138/138
f 4/139/139 37/140/140 38/141/141
